# File produced by Open Asset Import Library (http://www.assimp.sf.net)
# (assimp v3.2.202087883)

mtllib model_normalized.mtl

# 60 vertex positions
v 0.149209 -0.334892 -0.159157
v 0.174078 -0.334892 -0.184025
v 0.174078 -0.334892 -0.159157
v 0.149209 -0.334892 -0.184025
v 0.174078 0.228788 -0.159157
v 0.174078 -0.044763 -0.159157
v 0.149209 -0.044763 -0.184025
v 0.174078 -0.019895 -0.159157
v 0.174078 0.311682 -0.184025
v 0.149209 -0.044763 -0.159157
v 0.149209 -0.019895 -0.159157
v 0.174078 0.311682 0.139262
v 0.149209 -0.044763 0.139262
v 0.174078 -0.019895 0.139262
v -0.149209 -0.044763 -0.159157
v 0.149209 -0.019895 -0.184025
v 0.149209 0.228788 -0.159157
v -0.174078 0.311682 -0.184025
v 0.174078 0.228788 0.139262
v 0.174078 -0.044763 0.139262
v 0.149209 -0.019895 0.139262
v -0.149209 -0.044763 -0.184025
v -0.149209 -0.019895 -0.184025
v 0.149209 0.228788 -0.184025
v 0.149209 0.228788 0.139262
v -0.174078 0.311682 0.139262
v 0.174078 0.535496 0.164130
v 0.174078 -0.334892 0.139262
v -0.149209 -0.019895 0.139262
v -0.149209 -0.334892 -0.184025
v -0.149209 -0.019895 -0.159157
v -0.149209 0.228788 0.139262
v -0.149209 0.228788 -0.159157
v -0.174078 0.228788 -0.159157
v -0.174078 0.535496 0.139262
v -0.149209 0.228788 -0.184025
v 0.174078 0.535496 0.139262
v 0.149209 -0.334892 0.139262
v -0.149209 -0.044763 0.139262
v 0.149209 -0.019895 0.164130
v -0.149209 -0.334892 -0.159157
v -0.149209 0.228788 0.164130
v -0.174078 -0.334892 -0.159157
v -0.174078 0.228788 0.139262
v -0.174078 -0.334892 0.164130
v 0.149209 -0.334892 0.164130
v 0.174078 -0.334892 0.164130
v -0.149209 -0.044763 0.164130
v -0.149209 -0.019895 0.164130
v -0.174078 -0.334892 -0.184025
v -0.174078 -0.019895 -0.159157
v 0.149209 0.228788 0.164130
v -0.174078 -0.044763 -0.159157
v -0.174078 0.535496 0.164130
v 0.149209 -0.044763 0.164130
v -0.149209 -0.334892 0.139262
v -0.174078 -0.044763 0.139262
v -0.174078 -0.019895 0.139262
v -0.149209 -0.334892 0.164130
v -0.174078 -0.334892 0.139262

# 110 UV coordinates
vt -20.0655 1.29903 0
vt -20.034 1.20245 0
vt -20.034 1.29903 0
vt -20.0655 1.20245 0
vt -0.423228 2.18926 0
vt -0.423228 0 0
vt -0.39176 0 0
vt -20.034 1.12682 0
vt -20.0655 0 0
vt -20.034 0 0
vt 0.423228 0 0
vt 0.39176 1.12682 0
vt 0.39176 0 0
vt 20.0655 1.12682 0
vt 20.034 0 0
vt 20.0655 0 0
vt -0.423228 1.22341 0
vt -0.39176 2.51121 0
vt -20.0655 1.12682 0
vt -0.423228 1.12682 0
vt 0.423228 1.12682 0
vt 20.034 2.51121 0
vt -20.034 2.18926 0
vt -20.0655 1.22341 0
vt -20.034 1.22341 0
vt -0.800839 2.51121 0
vt -20.0655 2.45805 0
vt -0.800839 1.22341 0
vt -20.4431 1.29903 0
vt 20.0655 1.22341 0
vt -20.0655 2.18926 0
vt 20.0655 1.29903 0
vt 20.034 2.45805 0
vt 20.034 1.29903 0
vt 20.4746 1.20245 0
vt 20.034 1.20245 0
vt -0.800839 2.18926 0
vt -20.034 2.45805 0
vt 0.800839 1.22341 0
vt 0.800839 1.12682 0
vt -0.800839 1.12682 0
vt -20.4431 1.20245 0
vt -20.4431 1.12682 0
vt 20.4431 1.22341 0
vt 20.0655 2.18926 0
vt 0.39176 2.18926 0
vt 0.423228 1.22341 0
vt 0.423228 2.18926 0
vt 20.0655 2.45805 0
vt 20.4746 2.45805 0
vt 20.4746 2.51121 0
vt -0.832307 3.38048 0
vt 20.034 1.12682 0
vt -0.39176 1.12682 0
vt 20.4431 1.12682 0
vt -20.4431 1.22341 0
vt 20.4431 1.20245 0
vt 20.0655 1.20245 0
vt 0.39176 1.22341 0
vt -20.4431 2.45805 0
vt 20.034 1.22341 0
vt 0.39176 2.51121 0
vt 0.800839 2.51121 0
vt 20.4746 3.38048 0
vt 20.4431 2.18926 0
vt -0.800839 3.38048 0
vt 20.034 2.18926 0
vt -0.800839 0 0
vt 20.4431 2.45805 0
vt 20.0655 2.55464 0
vt 20.4431 0 0
vt 20.4431 1.29903 0
vt -20.4431 2.55464 0
vt 0.832307 1.22341 0
vt 0.800839 2.18926 0
vt 20.034 3.38048 0
vt 0.832307 0 0
vt 0.800839 3.38048 0
vt 20.034 2.55464 0
vt -20.0655 2.55464 0
vt 0.800839 0 0
vt -0.832307 0 0
vt 20.4431 2.55464 0
vt -20.4746 0 0
vt -20.4431 0 0
vt -20.4746 1.29903 0
vt 20.4746 0 0
vt -0.39176 1.22341 0
vt 20.4746 1.29903 0
vt -0.832307 2.18926 0
vt -20.4746 2.45805 0
vt -0.39176 2.18926 0
vt 0.832307 2.18926 0
vt 0.832307 3.38048 0
vt 20.4746 2.55464 0
vt -20.034 2.55464 0
vt 0.832307 1.12682 0
vt -20.034 3.38048 0
vt -0.832307 1.12682 0
vt -0.832307 1.22341 0
vt -20.4746 1.12682 0
vt -20.4746 1.20245 0
vt -20.4746 2.18926 0
vt -20.4431 2.18926 0
vt -20.4746 1.22341 0
vt 20.4746 2.18926 0
vt -20.4746 3.38048 0
vt 20.4746 1.12682 0
vt 20.4746 1.22341 0
vt -20.4746 2.55464 0

# 6 vertex normals
vn 0 -0.01 0
vn 0.01 0 0
vn 0 0 0.01
vn -0.01 0 0
vn 0 0 -0.01
vn 0 0.01 0

# Mesh 'mesh1_mesh1-geometry' with 132 faces
g mesh1_mesh1-geometry
usemtl material_0_1_8
f  1/1/1 2/2/1 3/3/1
f  2/2/1 1/1/1 4/4/1
f  5/5/2 3/6/2 2/7/2
f  6/8/3 1/9/3 3/10/3
f  1/11/4 7/12/4 4/13/4
f  7/14/5 2/15/5 4/16/5
f  3/6/2 5/5/2 8/17/2
f  9/18/2 5/5/2 2/7/2
f  1/9/3 6/8/3 10/19/3
f  3/6/2 8/17/2 6/20/2
f  7/12/4 1/11/4 10/21/4
f  2/15/5 7/14/5 9/22/5
f  5/23/3 11/24/3 8/25/3
f  5/5/2 9/18/2 12/26/2
f  6/3/1 13/27/1 10/1/1
f  14/28/2 6/20/2 8/17/2
f  15/29/1 7/4/1 10/1/1
f  9/22/5 7/14/5 16/30/5
f  11/24/3 5/23/3 17/31/3
f  11/32/6 14/33/6 8/34/6
f  18/35/6 12/33/6 9/36/6
f  5/5/2 12/26/2 19/37/2
f  13/27/1 6/3/1 20/38/1
f  21/39/4 10/21/4 13/40/4
f  6/20/2 14/28/2 20/41/2
f  7/4/1 15/29/1 22/42/1
f  11/24/3 15/43/3 10/19/3
f  16/30/5 7/14/5 23/44/5
f  9/22/5 16/30/5 24/45/5
f  5/3/1 25/27/1 17/1/1
f  24/46/4 11/47/4 17/48/4
f  14/33/6 11/32/6 21/49/6
f  12/33/6 18/35/6 26/50/6
f  9/22/5 24/45/5 18/51/5
f  12/26/2 27/52/2 19/37/2
f  25/27/1 5/3/1 19/38/1
f  28/15/5 13/14/5 20/53/5
f  10/21/4 21/39/4 11/47/4
f  13/14/5 29/44/5 21/30/5
f  14/28/2 27/52/2 20/41/2
f  15/20/2 30/7/2 22/54/2
f  22/55/5 23/44/5 7/14/5
f  15/43/3 11/24/3 31/56/3
f  23/57/6 11/32/6 16/58/6
f  11/47/4 24/46/4 16/59/4
f  17/1/1 25/27/1 32/60/1
f  33/29/1 24/4/1 17/1/1
f  25/45/5 14/61/5 21/30/5
f  18/62/4 34/48/4 26/63/4
f  35/64/5 12/22/5 26/51/5
f  36/65/5 18/51/5 24/45/5
f  27/52/2 12/26/2 37/66/2
f  19/37/2 27/52/2 14/28/2
f  14/61/5 25/45/5 19/67/5
f  13/14/5 28/15/5 38/16/5
f  20/41/2 27/52/2 28/68/2
f  29/44/5 13/14/5 39/55/5
f  29/69/6 40/70/6 21/49/6
f  30/7/2 15/20/2 41/6/2
f  30/71/5 18/51/5 22/55/5
f  22/55/5 18/51/5 23/44/5
f  11/32/6 23/57/6 31/72/6
f  29/28/2 15/20/2 31/17/2
f  25/27/1 42/73/1 32/60/1
f  17/1/1 32/60/1 33/29/1
f  24/4/1 33/29/1 36/42/1
f  40/74/4 25/75/4 21/39/4
f  18/62/4 43/11/4 34/48/4
f  26/63/4 34/48/4 44/75/4
f  12/22/5 35/64/5 37/76/5
f  26/63/4 45/77/4 35/78/4
f  23/44/5 18/51/5 36/65/5
f  35/50/6 27/79/6 37/33/6
f  28/38/1 46/80/1 38/27/1
f  46/77/4 13/40/4 38/81/4
f  28/68/2 27/52/2 47/82/2
f  13/27/1 48/73/1 39/60/1
f  15/20/2 29/28/2 39/41/2
f  40/70/6 29/69/6 49/83/6
f  15/43/3 43/84/3 41/85/3
f  43/86/1 30/42/1 41/29/1
f  18/51/5 30/71/5 50/87/5
f  23/88/2 33/5/2 31/17/2
f  51/89/6 29/69/6 31/72/6
f  42/73/1 25/27/1 52/80/1
f  42/90/2 29/28/2 32/37/2
f  33/29/1 32/60/1 44/91/1
f  33/5/2 23/88/2 36/92/2
f  25/75/4 40/74/4 52/93/4
f  43/11/4 18/62/4 50/13/4
f  34/48/4 43/11/4 53/21/4
f  33/29/1 44/91/1 34/86/1
f  44/75/4 45/77/4 26/63/4
f  35/78/4 45/77/4 54/94/4
f  27/79/6 35/50/6 54/95/6
f  46/80/1 28/38/1 47/96/1
f  13/40/4 46/77/4 55/97/4
f  27/98/3 46/9/3 47/10/3
f  48/73/1 13/27/1 55/80/1
f  48/99/2 56/68/2 39/41/2
f  57/91/1 15/29/1 39/60/1
f  29/28/2 42/90/2 49/100/2
f  49/56/3 48/43/3 40/24/3
f  43/84/3 15/43/3 53/101/3
f  30/42/1 43/86/1 50/102/1
f  34/103/3 31/56/3 33/104/3
f  29/69/6 51/89/6 58/50/6
f  31/56/3 34/103/3 51/105/3
f  52/31/3 27/98/3 42/104/3
f  29/44/5 44/106/5 32/65/5
f  40/24/3 27/98/3 52/31/3
f  34/48/4 53/21/4 51/47/4
f  58/39/4 45/77/4 44/75/4
f  45/84/3 48/43/3 54/107/3
f  54/107/3 42/104/3 27/98/3
f  46/9/3 27/98/3 55/19/3
f  55/19/3 40/24/3 48/43/3
f  56/68/2 48/99/2 59/82/2
f  56/71/5 57/108/5 39/55/5
f  15/29/1 57/91/1 53/86/1
f  54/107/3 49/56/3 42/104/3
f  54/107/3 48/43/3 49/56/3
f  51/47/4 57/40/4 58/39/4
f  44/106/5 29/44/5 58/109/5
f  55/19/3 27/98/3 40/24/3
f  57/40/4 51/47/4 53/21/4
f  57/40/4 45/77/4 58/39/4
f  48/43/3 45/84/3 59/85/3
f  45/110/1 56/60/1 59/73/1
f  57/108/5 56/71/5 60/87/5
f  45/77/4 57/40/4 60/81/4
f  56/60/1 45/110/1 60/91/1

# Mesh 'mesh1_mesh1-geometry' with 132 faces
g mesh1_mesh1-geometry
usemtl material_1_24
f  3//6 2//6 1//6
f  4//6 1//6 2//6
f  2//4 3//4 5//4
f  3//5 1//5 6//5
f  4//2 7//2 1//2
f  4//3 2//3 7//3
f  8//4 5//4 3//4
f  2//4 5//4 9//4
f  10//5 6//5 1//5
f  6//4 8//4 3//4
f  10//2 1//2 7//2
f  9//3 7//3 2//3
f  8//5 11//5 5//5
f  12//4 9//4 5//4
f  10//6 13//6 6//6
f  8//4 6//4 14//4
f  10//6 7//6 15//6
f  16//3 7//3 9//3
f  17//5 5//5 11//5
f  8//1 14//1 11//1
f  9//1 12//1 18//1
f  19//4 12//4 5//4
f  20//6 6//6 13//6
f  13//2 10//2 21//2
f  20//4 14//4 6//4
f  22//6 15//6 7//6
f  10//5 15//5 11//5
f  23//3 7//3 16//3
f  24//3 16//3 9//3
f  17//6 25//6 5//6
f  17//2 11//2 24//2
f  21//1 11//1 14//1
f  26//1 18//1 12//1
f  18//3 24//3 9//3
f  19//4 27//4 12//4
f  19//6 5//6 25//6
f  20//3 13//3 28//3
f  11//2 21//2 10//2
f  21//3 29//3 13//3
f  20//4 27//4 14//4
f  22//4 30//4 15//4
f  7//3 23//3 22//3
f  31//5 11//5 15//5
f  16//1 11//1 23//1
f  16//2 24//2 11//2
f  32//6 25//6 17//6
f  17//6 24//6 33//6
f  21//3 14//3 25//3
f  26//2 34//2 18//2
f  26//3 12//3 35//3
f  24//3 18//3 36//3
f  37//4 12//4 27//4
f  14//4 27//4 19//4
f  19//3 25//3 14//3
f  38//3 28//3 13//3
f  28//4 27//4 20//4
f  39//3 13//3 29//3
f  21//1 40//1 29//1
f  41//4 15//4 30//4
f  22//3 18//3 30//3
f  23//3 18//3 22//3
f  31//1 23//1 11//1
f  31//4 15//4 29//4
f  32//6 42//6 25//6
f  33//6 32//6 17//6
f  36//6 33//6 24//6
f  21//2 25//2 40//2
f  34//2 43//2 18//2
f  44//2 34//2 26//2
f  37//3 35//3 12//3
f  35//2 45//2 26//2
f  36//3 18//3 23//3
f  37//1 27//1 35//1
f  38//6 46//6 28//6
f  38//2 13//2 46//2
f  47//4 27//4 28//4
f  39//6 48//6 13//6
f  39//4 29//4 15//4
f  49//1 29//1 40//1
f  41//5 43//5 15//5
f  41//6 30//6 43//6
f  50//3 30//3 18//3
f  31//4 33//4 23//4
f  31//1 29//1 51//1
f  52//6 25//6 42//6
f  32//4 29//4 42//4
f  44//6 32//6 33//6
f  36//4 23//4 33//4
f  52//2 40//2 25//2
f  50//2 18//2 43//2
f  53//2 43//2 34//2
f  34//6 44//6 33//6
f  26//2 45//2 44//2
f  54//2 45//2 35//2
f  54//1 35//1 27//1
f  47//6 28//6 46//6
f  55//2 46//2 13//2
f  47//5 46//5 27//5
f  55//6 13//6 48//6
f  39//4 56//4 48//4
f  39//6 15//6 57//6
f  49//4 42//4 29//4
f  40//5 48//5 49//5
f  53//5 15//5 43//5
f  50//6 43//6 30//6
f  33//5 31//5 34//5
f  58//1 51//1 29//1
f  51//5 34//5 31//5
f  42//5 27//5 52//5
f  32//3 44//3 29//3
f  52//5 27//5 40//5
f  51//2 53//2 34//2
f  44//2 45//2 58//2
f  54//5 48//5 45//5
f  27//5 42//5 54//5
f  55//5 27//5 46//5
f  48//5 40//5 55//5
f  59//4 48//4 56//4
f  39//3 57//3 56//3
f  53//6 57//6 15//6
f  42//5 49//5 54//5
f  49//5 48//5 54//5
f  58//2 57//2 51//2
f  58//3 29//3 44//3
f  40//5 27//5 55//5
f  53//2 51//2 57//2
f  58//2 45//2 57//2
f  59//5 45//5 48//5
f  59//6 56//6 45//6
f  60//3 56//3 57//3
f  60//2 57//2 45//2
f  60//6 45//6 56//6

